<svg width="21" height="19" viewBox="0 0 21 19" fill="none" xmlns="http://www.w3.org/2000/svg">
<path d="M8.75 14.25C10.3031 14.2498 11.8115 13.7793 13.0349 12.9137L16.8814 16.3939L18.1186 15.2745L14.2721 11.7943C15.2294 10.6873 15.7496 9.32226 15.75 7.91671C15.75 4.42467 12.6096 1.58337 8.75 1.58337C4.89038 1.58337 1.75 4.42467 1.75 7.91671C1.75 11.4087 4.89038 14.25 8.75 14.25ZM8.75 3.16671C11.6454 3.16671 14 5.29708 14 7.91671C14 10.5363 11.6454 12.6667 8.75 12.6667C5.85462 12.6667 3.5 10.5363 3.5 7.91671C3.5 5.29708 5.85462 3.16671 8.75 3.16671Z" fill="black"/>
</svg>
