<svg width="31" height="30" viewBox="0 0 31 30" fill="none" xmlns="http://www.w3.org/2000/svg">
<path d="M3.44444 30H27.5556C29.4552 30 31 28.6545 31 27V10.5C31 10.1022 30.8186 9.72064 30.4956 9.43934C30.1726 9.15804 29.7345 9 29.2778 9H24.1111V7.5C24.1111 3.3645 20.2482 0 15.5 0C10.7518 0 6.88889 3.3645 6.88889 7.5V9H1.72222C1.26546 9 0.827406 9.15804 0.504427 9.43934C0.181448 9.72064 0 10.1022 0 10.5V27C0 28.6545 1.54483 30 3.44444 30ZM10.3333 7.5C10.3333 5.019 12.6514 3 15.5 3C18.3486 3 20.6667 5.019 20.6667 7.5V9H10.3333V7.5ZM3.44444 12H6.88889V15H10.3333V12H20.6667V15H24.1111V12H27.5556L27.559 27H3.44444V12Z" fill="black"/>
</svg>
