<svg width="206" height="31" viewBox="0 0 206 31" fill="none" xmlns="http://www.w3.org/2000/svg">
<path d="M18.8203 25.4297V30H4.50391V25.4297H18.8203ZM6.39844 1.5625V30H0.539062V1.5625H6.39844ZM27.7656 8.86719V30H22.1211V8.86719H27.7656ZM21.7695 3.35938C21.7695 2.53906 22.056 1.86198 22.6289 1.32812C23.2018 0.794271 23.9701 0.527344 24.9336 0.527344C25.8841 0.527344 26.6458 0.794271 27.2188 1.32812C27.8047 1.86198 28.0977 2.53906 28.0977 3.35938C28.0977 4.17969 27.8047 4.85677 27.2188 5.39062C26.6458 5.92448 25.8841 6.19141 24.9336 6.19141C23.9701 6.19141 23.2018 5.92448 22.6289 5.39062C22.056 4.85677 21.7695 4.17969 21.7695 3.35938ZM42.7656 8.86719V12.8516H30.4609V8.86719H42.7656ZM33.5078 3.65234H39.1328V23.6328C39.1328 24.2448 39.2109 24.7135 39.3672 25.0391C39.5365 25.3646 39.7839 25.5924 40.1094 25.7227C40.4349 25.8398 40.8451 25.8984 41.3398 25.8984C41.6914 25.8984 42.0039 25.8854 42.2773 25.8594C42.5638 25.8203 42.8047 25.7812 43 25.7422L43.0195 29.8828C42.5378 30.0391 42.0169 30.1628 41.457 30.2539C40.8971 30.3451 40.2786 30.3906 39.6016 30.3906C38.3646 30.3906 37.2839 30.1888 36.3594 29.7852C35.4479 29.3685 34.7448 28.7044 34.25 27.793C33.7552 26.8815 33.5078 25.6836 33.5078 24.1992V3.65234ZM55.6953 30.3906C54.0547 30.3906 52.5833 30.1302 51.2812 29.6094C49.9792 29.0755 48.8724 28.3398 47.9609 27.4023C47.0625 26.4648 46.3724 25.3776 45.8906 24.1406C45.4089 22.8906 45.168 21.5625 45.168 20.1562V19.375C45.168 17.7734 45.3958 16.3086 45.8516 14.9805C46.3073 13.6523 46.9583 12.5 47.8047 11.5234C48.6641 10.5469 49.7057 9.79818 50.9297 9.27734C52.1536 8.74349 53.5339 8.47656 55.0703 8.47656C56.5677 8.47656 57.8958 8.72396 59.0547 9.21875C60.2135 9.71354 61.1836 10.4167 61.9648 11.3281C62.7591 12.2396 63.3581 13.3333 63.7617 14.6094C64.1654 15.8724 64.3672 17.2786 64.3672 18.8281V21.1719H47.5703V17.4219H58.8398V16.9922C58.8398 16.2109 58.6966 15.5143 58.4102 14.9023C58.1367 14.2773 57.7201 13.7826 57.1602 13.418C56.6003 13.0534 55.8841 12.8711 55.0117 12.8711C54.2695 12.8711 53.6315 13.0339 53.0977 13.3594C52.5638 13.6849 52.1276 14.1406 51.7891 14.7266C51.4635 15.3125 51.2161 16.0026 51.0469 16.7969C50.8906 17.5781 50.8125 18.4375 50.8125 19.375V20.1562C50.8125 21.0026 50.9297 21.7839 51.1641 22.5C51.4115 23.2161 51.7565 23.8346 52.1992 24.3555C52.6549 24.8763 53.2018 25.2799 53.8398 25.5664C54.4909 25.8529 55.2266 25.9961 56.0469 25.9961C57.0625 25.9961 58.0065 25.8008 58.8789 25.4102C59.7643 25.0065 60.526 24.401 61.1641 23.5938L63.8984 26.5625C63.4557 27.2005 62.8503 27.8125 62.082 28.3984C61.3268 28.9844 60.4154 29.4661 59.3477 29.8438C58.2799 30.2083 57.0625 30.3906 55.6953 30.3906ZM73.1953 13.4766V30H67.5703V8.86719H72.8633L73.1953 13.4766ZM79.5625 8.73047L79.4648 13.9453C79.1914 13.9062 78.8594 13.8737 78.4688 13.8477C78.0911 13.8086 77.7461 13.7891 77.4336 13.7891C76.6393 13.7891 75.9492 13.8932 75.3633 14.1016C74.7904 14.2969 74.3086 14.5898 73.918 14.9805C73.5404 15.3711 73.2539 15.8464 73.0586 16.4062C72.8763 16.9661 72.7721 17.6042 72.7461 18.3203L71.6133 17.9688C71.6133 16.6016 71.75 15.3451 72.0234 14.1992C72.2969 13.0404 72.694 12.0312 73.2148 11.1719C73.7487 10.3125 74.3997 9.64844 75.168 9.17969C75.9362 8.71094 76.8151 8.47656 77.8047 8.47656C78.1172 8.47656 78.4362 8.5026 78.7617 8.55469C79.0872 8.59375 79.3542 8.65234 79.5625 8.73047ZM92.9609 25.2344V15.8203C92.9609 15.1432 92.8503 14.5638 92.6289 14.082C92.4076 13.5872 92.0625 13.2031 91.5938 12.9297C91.138 12.6562 90.5456 12.5195 89.8164 12.5195C89.1914 12.5195 88.651 12.6302 88.1953 12.8516C87.7396 13.0599 87.388 13.3659 87.1406 13.7695C86.8932 14.1602 86.7695 14.6224 86.7695 15.1562H81.1445C81.1445 14.2578 81.3529 13.4049 81.7695 12.5977C82.1862 11.7904 82.7917 11.0807 83.5859 10.4688C84.3802 9.84375 85.3242 9.35547 86.418 9.00391C87.5247 8.65234 88.7617 8.47656 90.1289 8.47656C91.7695 8.47656 93.2279 8.75 94.5039 9.29688C95.7799 9.84375 96.7826 10.6641 97.5117 11.7578C98.2539 12.8516 98.625 14.2188 98.625 15.8594V24.9023C98.625 26.0612 98.6966 27.0117 98.8398 27.7539C98.9831 28.4831 99.1914 29.1211 99.4648 29.668V30H93.7812C93.5078 29.4271 93.2995 28.7109 93.1562 27.8516C93.026 26.9792 92.9609 26.1068 92.9609 25.2344ZM93.7031 17.1289L93.7422 20.3125H90.5977C89.8555 20.3125 89.2109 20.3971 88.6641 20.5664C88.1172 20.7357 87.668 20.9766 87.3164 21.2891C86.9648 21.5885 86.7044 21.9401 86.5352 22.3438C86.3789 22.7474 86.3008 23.1901 86.3008 23.6719C86.3008 24.1536 86.4115 24.5898 86.6328 24.9805C86.8542 25.3581 87.1732 25.6576 87.5898 25.8789C88.0065 26.0872 88.4948 26.1914 89.0547 26.1914C89.901 26.1914 90.6367 26.0221 91.2617 25.6836C91.8867 25.3451 92.3685 24.9284 92.707 24.4336C93.0586 23.9388 93.2409 23.4701 93.2539 23.0273L94.7383 25.4102C94.5299 25.944 94.2435 26.4974 93.8789 27.0703C93.5273 27.6432 93.0781 28.1836 92.5312 28.6914C91.9844 29.1862 91.3268 29.5964 90.5586 29.9219C89.7904 30.2344 88.8789 30.3906 87.8242 30.3906C86.4831 30.3906 85.2656 30.1237 84.1719 29.5898C83.0911 29.043 82.2318 28.2943 81.5938 27.3438C80.9688 26.3802 80.6562 25.2865 80.6562 24.0625C80.6562 22.9557 80.8646 21.9727 81.2812 21.1133C81.6979 20.2539 82.3099 19.5312 83.1172 18.9453C83.9375 18.3464 84.9596 17.8971 86.1836 17.5977C87.4076 17.2852 88.8268 17.1289 90.4414 17.1289H93.7031ZM118.117 22.5586C118.117 22.0508 118.039 21.5951 117.883 21.1914C117.74 20.7747 117.466 20.3971 117.062 20.0586C116.659 19.707 116.092 19.362 115.363 19.0234C114.634 18.6849 113.69 18.3333 112.531 17.9688C111.242 17.5521 110.018 17.0833 108.859 16.5625C107.714 16.0417 106.698 15.4362 105.812 14.7461C104.94 14.043 104.25 13.2292 103.742 12.3047C103.247 11.3802 103 10.306 103 9.08203C103 7.89714 103.26 6.82292 103.781 5.85938C104.302 4.88281 105.031 4.04948 105.969 3.35938C106.906 2.65625 108.013 2.11589 109.289 1.73828C110.578 1.36068 111.991 1.17188 113.527 1.17188C115.624 1.17188 117.453 1.54948 119.016 2.30469C120.578 3.0599 121.789 4.09505 122.648 5.41016C123.521 6.72526 123.957 8.22917 123.957 9.92188H118.137C118.137 9.08854 117.961 8.35938 117.609 7.73438C117.271 7.09635 116.75 6.59505 116.047 6.23047C115.357 5.86589 114.484 5.68359 113.43 5.68359C112.414 5.68359 111.568 5.83984 110.891 6.15234C110.214 6.45182 109.706 6.86198 109.367 7.38281C109.029 7.89062 108.859 8.46354 108.859 9.10156C108.859 9.58333 108.977 10.0195 109.211 10.4102C109.458 10.8008 109.823 11.1654 110.305 11.5039C110.786 11.8424 111.379 12.1615 112.082 12.4609C112.785 12.7604 113.599 13.0534 114.523 13.3398C116.073 13.8086 117.434 14.3359 118.605 14.9219C119.79 15.5078 120.78 16.1654 121.574 16.8945C122.368 17.6237 122.967 18.4505 123.371 19.375C123.775 20.2995 123.977 21.3477 123.977 22.5195C123.977 23.7565 123.736 24.8633 123.254 25.8398C122.772 26.8164 122.076 27.6432 121.164 28.3203C120.253 28.9974 119.165 29.5117 117.902 29.8633C116.639 30.2148 115.227 30.3906 113.664 30.3906C112.258 30.3906 110.871 30.2083 109.504 29.8438C108.137 29.4661 106.893 28.8997 105.773 28.1445C104.667 27.3893 103.781 26.4258 103.117 25.2539C102.453 24.082 102.121 22.6953 102.121 21.0938H108C108 21.9792 108.137 22.7279 108.41 23.3398C108.684 23.9518 109.068 24.4466 109.562 24.8242C110.07 25.2018 110.669 25.4753 111.359 25.6445C112.062 25.8138 112.831 25.8984 113.664 25.8984C114.68 25.8984 115.513 25.7552 116.164 25.4688C116.828 25.1823 117.316 24.7852 117.629 24.2773C117.954 23.7695 118.117 23.1966 118.117 22.5586ZM137.961 8.86719V12.8516H125.656V8.86719H137.961ZM128.703 3.65234H134.328V23.6328C134.328 24.2448 134.406 24.7135 134.562 25.0391C134.732 25.3646 134.979 25.5924 135.305 25.7227C135.63 25.8398 136.04 25.8984 136.535 25.8984C136.887 25.8984 137.199 25.8854 137.473 25.8594C137.759 25.8203 138 25.7812 138.195 25.7422L138.215 29.8828C137.733 30.0391 137.212 30.1628 136.652 30.2539C136.092 30.3451 135.474 30.3906 134.797 30.3906C133.56 30.3906 132.479 30.1888 131.555 29.7852C130.643 29.3685 129.94 28.7044 129.445 27.793C128.951 26.8815 128.703 25.6836 128.703 24.1992V3.65234ZM139.758 19.6484V19.2383C139.758 17.6888 139.979 16.263 140.422 14.9609C140.865 13.6458 141.509 12.5065 142.355 11.543C143.202 10.5794 144.243 9.83073 145.48 9.29688C146.717 8.75 148.137 8.47656 149.738 8.47656C151.34 8.47656 152.766 8.75 154.016 9.29688C155.266 9.83073 156.314 10.5794 157.16 11.543C158.02 12.5065 158.671 13.6458 159.113 14.9609C159.556 16.263 159.777 17.6888 159.777 19.2383V19.6484C159.777 21.1849 159.556 22.6107 159.113 23.9258C158.671 25.2279 158.02 26.3672 157.16 27.3438C156.314 28.3073 155.272 29.056 154.035 29.5898C152.798 30.1237 151.379 30.3906 149.777 30.3906C148.176 30.3906 146.75 30.1237 145.5 29.5898C144.263 29.056 143.215 28.3073 142.355 27.3438C141.509 26.3672 140.865 25.2279 140.422 23.9258C139.979 22.6107 139.758 21.1849 139.758 19.6484ZM145.383 19.2383V19.6484C145.383 20.5339 145.461 21.3607 145.617 22.1289C145.773 22.8971 146.021 23.5742 146.359 24.1602C146.711 24.7331 147.167 25.1823 147.727 25.5078C148.286 25.8333 148.97 25.9961 149.777 25.9961C150.559 25.9961 151.229 25.8333 151.789 25.5078C152.349 25.1823 152.798 24.7331 153.137 24.1602C153.475 23.5742 153.723 22.8971 153.879 22.1289C154.048 21.3607 154.133 20.5339 154.133 19.6484V19.2383C154.133 18.3789 154.048 17.5716 153.879 16.8164C153.723 16.0482 153.469 15.3711 153.117 14.7852C152.779 14.1862 152.329 13.7174 151.77 13.3789C151.21 13.0404 150.533 12.8711 149.738 12.8711C148.944 12.8711 148.267 13.0404 147.707 13.3789C147.16 13.7174 146.711 14.1862 146.359 14.7852C146.021 15.3711 145.773 16.0482 145.617 16.8164C145.461 17.5716 145.383 18.3789 145.383 19.2383ZM168.859 13.4766V30H163.234V8.86719H168.527L168.859 13.4766ZM175.227 8.73047L175.129 13.9453C174.855 13.9062 174.523 13.8737 174.133 13.8477C173.755 13.8086 173.41 13.7891 173.098 13.7891C172.303 13.7891 171.613 13.8932 171.027 14.1016C170.454 14.2969 169.973 14.5898 169.582 14.9805C169.204 15.3711 168.918 15.8464 168.723 16.4062C168.54 16.9661 168.436 17.6042 168.41 18.3203L167.277 17.9688C167.277 16.6016 167.414 15.3451 167.688 14.1992C167.961 13.0404 168.358 12.0312 168.879 11.1719C169.413 10.3125 170.064 9.64844 170.832 9.17969C171.6 8.71094 172.479 8.47656 173.469 8.47656C173.781 8.47656 174.1 8.5026 174.426 8.55469C174.751 8.59375 175.018 8.65234 175.227 8.73047ZM187.219 30.3906C185.578 30.3906 184.107 30.1302 182.805 29.6094C181.503 29.0755 180.396 28.3398 179.484 27.4023C178.586 26.4648 177.896 25.3776 177.414 24.1406C176.932 22.8906 176.691 21.5625 176.691 20.1562V19.375C176.691 17.7734 176.919 16.3086 177.375 14.9805C177.831 13.6523 178.482 12.5 179.328 11.5234C180.188 10.5469 181.229 9.79818 182.453 9.27734C183.677 8.74349 185.057 8.47656 186.594 8.47656C188.091 8.47656 189.419 8.72396 190.578 9.21875C191.737 9.71354 192.707 10.4167 193.488 11.3281C194.283 12.2396 194.882 13.3333 195.285 14.6094C195.689 15.8724 195.891 17.2786 195.891 18.8281V21.1719H179.094V17.4219H190.363V16.9922C190.363 16.2109 190.22 15.5143 189.934 14.9023C189.66 14.2773 189.243 13.7826 188.684 13.418C188.124 13.0534 187.408 12.8711 186.535 12.8711C185.793 12.8711 185.155 13.0339 184.621 13.3594C184.087 13.6849 183.651 14.1406 183.312 14.7266C182.987 15.3125 182.74 16.0026 182.57 16.7969C182.414 17.5781 182.336 18.4375 182.336 19.375V20.1562C182.336 21.0026 182.453 21.7839 182.688 22.5C182.935 23.2161 183.28 23.8346 183.723 24.3555C184.178 24.8763 184.725 25.2799 185.363 25.5664C186.014 25.8529 186.75 25.9961 187.57 25.9961C188.586 25.9961 189.53 25.8008 190.402 25.4102C191.288 25.0065 192.049 24.401 192.688 23.5938L195.422 26.5625C194.979 27.2005 194.374 27.8125 193.605 28.3984C192.85 28.9844 191.939 29.4661 190.871 29.8438C189.803 30.2083 188.586 30.3906 187.219 30.3906ZM199.367 27.2852C199.367 26.4518 199.654 25.7552 200.227 25.1953C200.812 24.6354 201.587 24.3555 202.551 24.3555C203.514 24.3555 204.283 24.6354 204.855 25.1953C205.441 25.7552 205.734 26.4518 205.734 27.2852C205.734 28.1185 205.441 28.8151 204.855 29.375C204.283 29.9349 203.514 30.2148 202.551 30.2148C201.587 30.2148 200.812 29.9349 200.227 29.375C199.654 28.8151 199.367 28.1185 199.367 27.2852Z" fill="black"/>
</svg>
