<svg width="181" height="32" viewBox="0 0 181 32" fill="none" xmlns="http://www.w3.org/2000/svg">
<path d="M0.6 31V2.44H6.64V26H18.24V31H0.6ZM24.2972 9.16V31H18.3372V9.16H24.2972ZM21.3372 0.599998C22.2172 0.599998 22.9772 0.813332 23.6172 1.24C24.2572 1.64 24.5772 2.4 24.5772 3.52C24.5772 4.61333 24.2572 5.37333 23.6172 5.8C22.9772 6.22667 22.2172 6.44 21.3372 6.44C20.4305 6.44 19.6572 6.22667 19.0172 5.8C18.4039 5.37333 18.0972 4.61333 18.0972 3.52C18.0972 2.4 18.4039 1.64 19.0172 1.24C19.6572 0.813332 20.4305 0.599998 21.3372 0.599998ZM35.3247 26.64C35.9914 26.64 36.6314 26.5733 37.2447 26.44C37.858 26.3067 38.4714 26.1467 39.0847 25.96V30.4C38.4447 30.6667 37.6447 30.8933 36.6847 31.08C35.7514 31.2933 34.7247 31.4 33.6047 31.4C32.298 31.4 31.1247 31.1867 30.0847 30.76C29.0714 30.3333 28.258 29.6 27.6447 28.56C27.058 27.4933 26.7647 26.0267 26.7647 24.16V13.64H23.9247V11.12L27.2047 9.12L28.9247 4.52H32.7247V9.16H38.8447V13.64H32.7247V24.16C32.7247 24.9867 32.9647 25.6133 33.4447 26.04C33.9247 26.44 34.5514 26.64 35.3247 26.64ZM48.0684 8.76C50.0951 8.76 51.8284 9.14667 53.2684 9.92C54.7351 10.6933 55.8684 11.8133 56.6684 13.28C57.4684 14.7467 57.8684 16.5467 57.8684 18.68V21.56H43.7884C43.8418 23.24 44.3351 24.56 45.2684 25.52C46.2284 26.48 47.5484 26.96 49.2284 26.96C50.6418 26.96 51.9218 26.8267 53.0684 26.56C54.2151 26.2667 55.4018 25.8267 56.6284 25.24V29.84C55.5618 30.3733 54.4284 30.76 53.2284 31C52.0551 31.2667 50.6284 31.4 48.9484 31.4C46.7618 31.4 44.8284 31 43.1484 30.2C41.4684 29.3733 40.1484 28.1333 39.1884 26.48C38.2284 24.8267 37.7484 22.7467 37.7484 20.24C37.7484 17.68 38.1751 15.56 39.0284 13.88C39.9084 12.1733 41.1218 10.8933 42.6684 10.04C44.2151 9.18666 46.0151 8.76 48.0684 8.76ZM48.1084 13C46.9618 13 46.0018 13.3733 45.2284 14.12C44.4818 14.8667 44.0418 16.0267 43.9084 17.6H52.2684C52.2684 16.72 52.1084 15.9333 51.7884 15.24C51.4951 14.5467 51.0418 14 50.4284 13.6C49.8151 13.2 49.0418 13 48.1084 13ZM70.5013 8.76C70.7946 8.76 71.1413 8.77333 71.5413 8.8C71.9413 8.82667 72.2613 8.86667 72.5013 8.92L72.0613 14.52C71.8746 14.4667 71.5946 14.4267 71.2213 14.4C70.8746 14.3467 70.5679 14.32 70.3013 14.32C69.5279 14.32 68.7813 14.4267 68.0613 14.64C67.3413 14.8267 66.6879 15.1333 66.1013 15.56C65.5413 15.9867 65.0879 16.56 64.7413 17.28C64.4213 17.9733 64.2613 18.84 64.2613 19.88V31H58.3013V9.16H62.8213L63.7013 12.84H63.9813C64.4079 12.0933 64.9413 11.4133 65.5813 10.8C66.2213 10.1867 66.9546 9.69333 67.7813 9.32C68.6346 8.94666 69.5413 8.76 70.5013 8.76ZM80.2441 8.72C83.1774 8.72 85.4174 9.36 86.9641 10.64C88.5374 11.8933 89.3241 13.8267 89.3241 16.44V31H85.1641L84.0041 28.04H83.8441C83.2307 28.8133 82.5907 29.4533 81.9241 29.96C81.2841 30.4667 80.5374 30.8267 79.6841 31.04C78.8574 31.28 77.8307 31.4 76.6041 31.4C75.3241 31.4 74.1641 31.16 73.1241 30.68C72.1107 30.1733 71.3107 29.4133 70.7241 28.4C70.1374 27.36 69.8441 26.0533 69.8441 24.48C69.8441 22.16 70.6574 20.4533 72.2841 19.36C73.9107 18.24 76.3507 17.6267 79.6041 17.52L83.4041 17.4V16.44C83.4041 15.2933 83.0974 14.4533 82.4841 13.92C81.8974 13.3867 81.0707 13.12 80.0041 13.12C78.9374 13.12 77.8974 13.28 76.8841 13.6C75.8707 13.8933 74.8574 14.2667 73.8441 14.72L71.8841 10.68C73.0574 10.0667 74.3507 9.58667 75.7641 9.24C77.2041 8.89333 78.6974 8.72 80.2441 8.72ZM81.0841 20.96C79.1641 21.0133 77.8307 21.36 77.0841 22C76.3374 22.64 75.9641 23.48 75.9641 24.52C75.9641 25.4267 76.2307 26.08 76.7641 26.48C77.2974 26.8533 77.9907 27.04 78.8441 27.04C80.1241 27.04 81.2041 26.6667 82.0841 25.92C82.9641 25.1467 83.4041 24.0667 83.4041 22.68V20.88L81.0841 20.96ZM108.345 23.08C108.345 24.76 107.931 26.2267 107.105 27.48C106.278 28.7333 105.078 29.7067 103.505 30.4C101.958 31.0667 100.065 31.4 97.8247 31.4C96.838 31.4 95.8647 31.3333 94.9047 31.2C93.9714 31.0667 93.0647 30.88 92.1847 30.64C91.3314 30.3733 90.518 30.0533 89.7447 29.68V24.04C91.1047 24.6267 92.5047 25.1733 93.9447 25.68C95.4114 26.16 96.8647 26.4 98.3047 26.4C99.2914 26.4 100.078 26.2667 100.665 26C101.278 25.7333 101.718 25.3733 101.985 24.92C102.278 24.4667 102.425 23.9467 102.425 23.36C102.425 22.64 102.171 22.0267 101.665 21.52C101.185 21.0133 100.531 20.5467 99.7047 20.12C98.878 19.6667 97.9314 19.1867 96.8647 18.68C96.198 18.36 95.478 17.9867 94.7047 17.56C93.9314 17.1067 93.1847 16.56 92.4647 15.92C91.7714 15.2533 91.198 14.4533 90.7447 13.52C90.2914 12.5867 90.0647 11.4667 90.0647 10.16C90.0647 8.45333 90.4514 7 91.2247 5.8C92.0247 4.57333 93.1447 3.64 94.5847 3C96.0514 2.36 97.7714 2.04 99.7447 2.04C101.238 2.04 102.651 2.21333 103.985 2.56C105.345 2.90667 106.758 3.4 108.225 4.04L106.265 8.76C104.958 8.22667 103.785 7.81333 102.745 7.52C101.705 7.22667 100.638 7.08 99.5447 7.08C98.798 7.08 98.158 7.2 97.6247 7.44C97.0914 7.68 96.678 8.01333 96.3847 8.44C96.118 8.86667 95.9847 9.37333 95.9847 9.96C95.9847 10.6267 96.1847 11.2 96.5847 11.68C96.9847 12.1333 97.5847 12.5733 98.3847 13C99.1847 13.4267 100.185 13.9333 101.385 14.52C102.851 15.2133 104.091 15.9333 105.105 16.68C106.145 17.4267 106.945 18.3067 107.505 19.32C108.065 20.3333 108.345 21.5867 108.345 23.08ZM117.856 26.64C118.523 26.64 119.163 26.5733 119.776 26.44C120.389 26.3067 121.003 26.1467 121.616 25.96V30.4C120.976 30.6667 120.176 30.8933 119.216 31.08C118.283 31.2933 117.256 31.4 116.136 31.4C114.829 31.4 113.656 31.1867 112.616 30.76C111.603 30.3333 110.789 29.6 110.176 28.56C109.589 27.4933 109.296 26.0267 109.296 24.16V13.64H106.456V11.12L109.736 9.12L111.456 4.52H115.256V9.16H121.376V13.64H115.256V24.16C115.256 24.9867 115.496 25.6133 115.976 26.04C116.456 26.44 117.083 26.64 117.856 26.64ZM141.44 20.04C141.44 21.8533 141.186 23.4667 140.68 24.88C140.2 26.2933 139.493 27.4933 138.56 28.48C137.653 29.44 136.546 30.1733 135.24 30.68C133.933 31.16 132.453 31.4 130.8 31.4C129.28 31.4 127.866 31.16 126.56 30.68C125.28 30.1733 124.173 29.44 123.24 28.48C122.306 27.4933 121.573 26.2933 121.04 24.88C120.533 23.4667 120.28 21.8533 120.28 20.04C120.28 17.6133 120.706 15.5733 121.56 13.92C122.413 12.24 123.64 10.96 125.24 10.08C126.84 9.2 128.733 8.76 130.92 8.76C132.973 8.76 134.786 9.2 136.36 10.08C137.933 10.96 139.173 12.24 140.08 13.92C140.986 15.5733 141.44 17.6133 141.44 20.04ZM126.36 20.04C126.36 21.48 126.506 22.6933 126.8 23.68C127.12 24.64 127.613 25.3733 128.28 25.88C128.946 26.36 129.813 26.6 130.88 26.6C131.946 26.6 132.8 26.36 133.44 25.88C134.106 25.3733 134.586 24.64 134.88 23.68C135.2 22.6933 135.36 21.48 135.36 20.04C135.36 18.6 135.2 17.4 134.88 16.44C134.586 15.48 134.106 14.76 133.44 14.28C132.773 13.8 131.906 13.56 130.84 13.56C129.266 13.56 128.12 14.1067 127.4 15.2C126.706 16.2667 126.36 17.88 126.36 20.04ZM154.165 8.76C154.459 8.76 154.805 8.77333 155.205 8.8C155.605 8.82667 155.925 8.86667 156.165 8.92L155.725 14.52C155.539 14.4667 155.259 14.4267 154.885 14.4C154.539 14.3467 154.232 14.32 153.965 14.32C153.192 14.32 152.445 14.4267 151.725 14.64C151.005 14.8267 150.352 15.1333 149.765 15.56C149.205 15.9867 148.752 16.56 148.405 17.28C148.085 17.9733 147.925 18.84 147.925 19.88V31H141.965V9.16H146.485L147.365 12.84H147.645C148.072 12.0933 148.605 11.4133 149.245 10.8C149.885 10.1867 150.619 9.69333 151.445 9.32C152.299 8.94666 153.205 8.76 154.165 8.76ZM163.948 8.76C165.975 8.76 167.708 9.14667 169.148 9.92C170.615 10.6933 171.748 11.8133 172.548 13.28C173.348 14.7467 173.748 16.5467 173.748 18.68V21.56H159.668C159.721 23.24 160.215 24.56 161.148 25.52C162.108 26.48 163.428 26.96 165.108 26.96C166.521 26.96 167.801 26.8267 168.948 26.56C170.095 26.2667 171.281 25.8267 172.508 25.24V29.84C171.441 30.3733 170.308 30.76 169.108 31C167.935 31.2667 166.508 31.4 164.828 31.4C162.641 31.4 160.708 31 159.028 30.2C157.348 29.3733 156.028 28.1333 155.068 26.48C154.108 24.8267 153.628 22.7467 153.628 20.24C153.628 17.68 154.055 15.56 154.908 13.88C155.788 12.1733 157.001 10.8933 158.548 10.04C160.095 9.18666 161.895 8.76 163.948 8.76ZM163.988 13C162.841 13 161.881 13.3733 161.108 14.12C160.361 14.8667 159.921 16.0267 159.788 17.6H168.148C168.148 16.72 167.988 15.9333 167.668 15.24C167.375 14.5467 166.921 14 166.308 13.6C165.695 13.2 164.921 13 163.988 13ZM173.341 28.2C173.341 26.9733 173.674 26.12 174.341 25.64C175.008 25.1333 175.821 24.88 176.781 24.88C177.714 24.88 178.514 25.1333 179.181 25.64C179.848 26.12 180.181 26.9733 180.181 28.2C180.181 29.3733 179.848 30.2267 179.181 30.76C178.514 31.2667 177.714 31.52 176.781 31.52C175.821 31.52 175.008 31.2667 174.341 30.76C173.674 30.2267 173.341 29.3733 173.341 28.2Z" fill="black"/>
</svg>